<?xml version="1.0" standalone="no"?>
<!DOCTYPE svg PUBLIC "-//W3C//DTD SVG 20010904//EN"
 "http://www.w3.org/TR/2001/REC-SVG-20010904/DTD/svg10.dtd">
<svg version="1.0" xmlns="http://www.w3.org/2000/svg"
 width="500.000000pt" height="500.000000pt" viewBox="0 0 500.000000 500.000000"
 preserveAspectRatio="xMidYMid meet">

<g transform="translate(0.000000,500.000000) scale(0.100000,-0.100000)"
fill="#000000" stroke="none">
<path d="M2976 4990 c-43 -13 -89 -48 -117 -89 l-24 -36 -3 -1340 c-2 -932 0
-1351 8 -1377 14 -50 56 -97 105 -119 34 -16 67 -19 236 -19 l195 0 168 -125
c135 -101 174 -125 200 -125 56 0 70 27 76 143 l5 102 515 5 515 5 38 23 c20
13 50 45 65 70 l27 47 0 1345 0 1345 -22 42 c-27 50 -73 87 -128 102 -49 13
-1814 14 -1859 1z m1834 -170 c18 -18 20 -31 18 -88 l-3 -67 -227 0 c-126 0
-538 1 -918 3 l-690 2 0 69 c0 45 5 72 13 80 10 8 190 12 608 14 327 1 726 3
887 5 282 2 293 1 312 -18z m18 -1475 c-3 -1015 -5 -1157 -18 -1165 -9 -6
-233 -10 -558 -10 l-543 0 -24 -25 c-21 -20 -25 -34 -25 -80 0 -30 -2 -55 -5
-55 -3 0 -53 36 -112 80 l-106 80 -208 0 c-175 0 -210 2 -223 16 -14 14 -16
133 -16 1165 l0 1149 920 0 920 0 -2 -1155z"/>
<path d="M3145 4413 c-11 -3 -30 -14 -42 -26 -23 -20 -23 -23 -23 -304 0 -268
1 -284 20 -303 11 -11 30 -22 43 -25 12 -3 123 -5 245 -3 215 3 222 4 244 26
23 22 23 27 26 290 2 169 -1 278 -7 296 -19 49 -57 56 -283 55 -112 -1 -212
-3 -223 -6z m345 -328 l0 -165 -125 0 -125 0 0 165 0 165 125 0 125 0 0 -165z"/>
<path d="M3794 4406 c-51 -23 -64 -95 -22 -132 19 -18 46 -19 469 -19 l448 0
23 22 c27 27 30 86 6 110 -28 27 -99 32 -503 32 -307 0 -397 -3 -421 -13z"/>
<path d="M3794 4156 c-39 -17 -46 -28 -46 -73 0 -23 8 -43 21 -57 21 -21 28
-21 455 -24 267 -2 443 1 459 7 68 26 72 111 7 143 -32 16 -74 18 -450 18
-328 -1 -422 -4 -446 -14z"/>
<path d="M3795 3906 c-54 -23 -66 -94 -23 -133 19 -17 52 -18 453 -21 267 -2
442 1 458 7 68 26 72 111 7 143 -32 16 -74 18 -450 18 -321 -1 -422 -4 -445
-14z"/>
<path d="M3125 3659 c-68 -38 -57 -136 17 -154 13 -3 367 -4 786 -3 l764 3 25
29 c29 34 26 77 -8 111 -19 20 -34 20 -792 22 -548 2 -778 -1 -792 -8z"/>
<path d="M3125 3408 c-51 -27 -59 -80 -21 -125 l24 -28 407 0 407 0 24 28 c32
38 31 72 -5 108 l-29 29 -394 0 c-265 -1 -400 -4 -413 -12z"/>
<path d="M4125 3409 c-44 -25 -45 -30 -45 -326 0 -270 1 -284 20 -303 19 -19
33 -20 304 -20 264 0 285 1 307 19 l24 19 3 280 3 280 -25 28 -24 29 -274 2
c-187 2 -279 -1 -293 -8z m455 -324 l0 -165 -170 0 -170 0 0 165 0 165 170 0
170 0 0 -165z"/>
<path d="M3125 3158 c-49 -26 -59 -77 -24 -122 l20 -26 414 0 414 0 20 26 c29
37 26 70 -8 105 l-29 29 -394 0 c-265 -1 -400 -4 -413 -12z"/>
<path d="M3125 2908 c-49 -26 -59 -77 -24 -122 l20 -26 414 0 414 0 20 26 c29
37 26 70 -8 105 l-29 29 -394 0 c-265 -1 -400 -4 -413 -12z"/>
<path d="M3105 2645 c-31 -30 -32 -73 -4 -109 l20 -26 783 0 c852 0 816 -2
830 56 9 36 -9 79 -40 93 -18 8 -244 11 -795 11 l-770 0 -24 -25z"/>
<path d="M3105 2395 c-31 -30 -32 -73 -4 -109 l20 -26 783 0 c852 0 816 -2
830 56 9 36 -9 79 -40 93 -18 8 -244 11 -795 11 l-770 0 -24 -25z"/>
<path d="M1248 4160 c-179 -23 -360 -132 -460 -277 -79 -116 -118 -243 -118
-385 l0 -99 -35 -34 c-46 -47 -59 -98 -52 -217 4 -81 10 -109 35 -162 37 -80
93 -136 169 -172 l58 -27 17 -70 c37 -150 149 -336 256 -425 l52 -44 0 -77 0
-78 -337 -103 c-186 -57 -358 -112 -383 -123 -171 -75 -325 -235 -394 -411
-54 -135 -57 -174 -54 -757 l3 -534 25 -45 c16 -28 43 -55 74 -75 l49 -30
2243 -3 2243 -2 26 22 c24 21 37 74 170 675 80 358 147 670 151 692 10 62 -21
147 -73 197 -80 78 -27 74 -1036 74 l-899 0 -69 64 c-109 101 -193 138 -581
256 l-338 103 0 78 0 77 50 42 c106 88 224 284 258 428 17 71 18 72 61 89 67
26 153 111 187 185 26 58 28 73 29 178 0 91 -4 122 -18 147 -37 68 -97 103
-179 103 l-49 0 60 56 c157 145 251 338 267 549 6 77 5 82 -19 110 l-25 30
-654 1 c-359 1 -679 -2 -710 -6z m1236 -197 c-47 -262 -273 -486 -538 -533
-37 -6 -264 -10 -588 -10 l-528 0 0 68 c0 83 22 176 56 244 35 68 131 167 196
203 120 66 100 64 786 64 l623 1 -7 -37z m-326 -910 c-4 -265 -4 -269 -32
-343 -85 -228 -289 -414 -491 -449 -135 -24 -287 41 -426 179 -92 92 -135 157
-176 272 -25 69 -27 84 -31 306 l-4 232 409 0 c454 1 566 8 668 44 39 13 74
24 78 25 5 1 7 -119 5 -266z m-1328 60 l0 -136 -26 24 c-40 37 -54 80 -54 169
l0 80 40 0 40 0 0 -137z m1580 57 c0 -89 -14 -132 -54 -169 l-26 -24 0 136 0
137 40 0 40 0 0 -80z m-990 -1054 c43 -15 79 -20 160 -20 101 0 139 8 233 49
16 7 17 -3 17 -128 0 -189 -27 -255 -129 -310 -100 -55 -212 -42 -289 32 -71
69 -76 87 -80 260 -4 146 -3 153 15 146 10 -4 43 -17 73 -29z m-247 -252 c8
-78 56 -175 116 -233 202 -197 536 -141 660 110 19 39 34 89 38 122 3 31 7 57
9 57 19 0 629 -196 672 -215 l57 -27 -48 -18 c-71 -27 -112 -63 -141 -122 -16
-35 -62 -222 -133 -541 l-107 -487 -123 0 -123 0 -56 45 c-104 85 -188 115
-326 115 -73 0 -88 3 -88 16 0 8 -13 29 -29 45 l-29 29 -346 0 -346 0 0 94 c0
84 -3 98 -22 120 -33 36 -85 39 -118 6 -18 -18 -20 -33 -20 -179 0 -141 2
-161 19 -182 l19 -24 356 -3 356 -3 0 -204 0 -205 -612 0 c-369 0 -619 4 -628
10 -13 8 -15 79 -15 537 0 583 0 582 63 713 43 89 157 209 241 254 44 24 648
221 687 225 6 1 14 -23 17 -55z m3628 -383 c11 -13 19 -39 19 -58 0 -27 -243
-1144 -266 -1225 -5 -17 -65 -18 -1086 -18 l-1080 0 7 28 c4 15 67 299 141
632 74 333 139 615 145 626 6 12 21 27 33 32 14 7 351 10 1044 9 l1024 -2 19
-24z m-2990 -998 c94 -42 168 -146 184 -256 l6 -47 -210 0 -211 0 0 166 0 166
93 -4 c64 -3 106 -10 138 -25z m430 -220 c-17 -75 -18 -78 -48 -81 l-30 -3 -6
63 c-3 35 -9 71 -12 81 -6 15 0 17 53 17 l60 0 -17 -77z"/>
<path d="M1274 3159 c-17 -5 -47 -25 -67 -44 -30 -29 -37 -43 -37 -74 0 -71
76 -106 134 -60 l26 20 26 -20 c59 -46 134 -11 134 62 0 28 -8 44 -35 71 -49
50 -112 65 -181 45z"/>
<path d="M1779 3160 c-95 -29 -141 -120 -88 -176 28 -30 77 -32 113 -3 l26 20
26 -20 c58 -46 134 -11 134 61 0 79 -120 146 -211 118z"/>
<path d="M3364 1151 c-55 -25 -101 -83 -115 -147 -7 -32 -10 -107 -7 -197 4
-140 5 -147 34 -194 22 -36 43 -55 83 -75 l55 -28 245 0 c269 0 294 5 353 64
55 56 60 80 56 280 l-3 184 -30 44 c-18 25 -49 52 -75 66 -42 21 -54 22 -300
22 -226 0 -260 -3 -296 -19z m530 -157 c13 -12 16 -41 16 -153 0 -123 -2 -140
-19 -155 -17 -15 -43 -17 -240 -14 -184 2 -223 6 -231 18 -5 8 -10 79 -10 157
0 125 2 143 18 152 10 6 105 11 234 11 184 0 219 -2 232 -16z"/>
</g>
</svg>
